Coordinates
version=1
nRows=29
nColumns=24
inDegrees=yes

Units are S.I. units (second, meters, Newtons, ...)
Angles are in degrees.

endheader
time	pelvis_tilt	pelvis_list	pelvis_rotation	pelvis_tx	pelvis_ty	pelvis_tz	hip_flexion_r	hip_adduction_r	hip_rotation_r	knee_angle_r	ankle_angle_r	subtalar_angle_r	mtp_angle_r	hip_flexion_l	hip_adduction_l	hip_rotation_l	knee_angle_l	ankle_angle_l	subtalar_angle_l	mtp_angle_l	lumbar_extension	lumbar_bending	lumbar_rotation
      1.20883333	     -0.58039475	      4.14766612	     -0.38746742	      0.15091142	      1.03017865	      0.30049868	     19.13780361	     -6.37961729	     -6.02228403	    -66.20665107	     -0.27700889	     -6.56007210	      9.43428290	      9.37870414	      8.24411434	      0.47075731	    -10.33190286	      4.67809547	     -7.04208494	     -1.36824215	     -5.55866796	     -6.98280126	      1.10235747
      1.21300000	     -0.58851996	      4.04753203	     -0.47360637	      0.15600407	      1.03100019	      0.30024392	     19.65503226	     -6.20757174	     -5.89200043	    -65.79852326	      0.01425840	     -6.86250577	      9.37842576	      8.89842027	      8.14569427	      0.44897291	     -9.98724658	      4.74664468	     -7.01682390	     -1.37449232	     -5.55995003	     -6.84151795	      1.07727445
      1.21716667	     -0.55334193	      3.93463968	     -0.55393492	      0.16106555	      1.03187889	      0.29999678	     20.10359300	     -6.01699018	     -5.77505238	    -65.31128327	      0.16422884	     -7.25228193	      9.17980240	      8.36246437	      8.03757046	      0.47730131	     -9.62055953	      4.79991595	     -7.01492479	     -1.39898342	     -5.64463944	     -6.67627789	      1.05858648
      1.22133333	     -0.57624197	      3.82239533	     -0.62681584	      0.16614121	      1.03261734	      0.29972798	     20.60143856	     -5.83179637	     -5.66802208	    -64.79158320	      0.46147178	     -7.48063153	      9.11257135	      7.90880025	      7.92960329	      0.45476584	     -9.29639883	      4.87011399	     -6.99344936	     -1.40792299	     -5.62642066	     -6.52063078	      1.02521067
      1.22550000	     -0.56758530	      3.68575403	     -0.69241362	      0.17118337	      1.03340348	      0.29946606	     21.03908998	     -5.61186151	     -5.56843507	    -64.19042642	      0.64830913	     -7.77000504	      8.98669116	      7.41788883	      7.79813806	      0.48300015	     -8.96384714	      4.92805867	     -6.97546945	     -1.42584200	     -5.69245497	     -6.32612358	      0.98848964
      1.22966667	     -0.56311552	      3.57370240	     -0.74404117	      0.17625889	      1.03414556	      0.29917277	     21.46248563	     -5.43034157	     -5.48967420	    -63.54763094	      0.88273904	     -7.97218097	      6.91400489	      6.89840268	      7.70975843	      0.65231937	     -8.55987796	      4.85590160	     -7.26406860	     -1.76197772	     -5.69944884	     -6.18122294	      0.83896853
      1.23383333	     -0.56433285	      3.44053839	     -0.79564777	      0.18130748	      1.03482865	      0.29889268	     21.87327945	     -5.22203692	     -5.41649138	    -62.84919686	      1.12851700	     -8.16935907	      6.88463368	      6.43723061	      7.58109784	      0.62238195	     -8.26850176	      4.98825530	     -7.16255255	     -1.76554258	     -5.71692766	     -5.97432482	      0.84532341
      1.23800000	     -0.54591799	      3.28624059	     -0.83245229	      0.18632563	      1.03552854	      0.29862325	     22.23368582	     -4.98420307	     -5.35091175	    -62.07007816	      1.27377589	     -8.37554910	      6.83062612	      5.95819194	      7.43220684	      0.63755041	     -7.98126664	      5.08867065	     -7.08356656	     -1.77477991	     -5.78989062	     -5.78462735	      0.81721296
      1.24216667	     -0.53300657	      3.15428002	     -0.86372578	      0.19134729	      1.03616038	      0.29834294	     22.58684801	     -4.77848669	     -5.29583190	    -61.25435189	      1.43575843	     -8.54974919	      6.76897229	      5.48346360	      7.31090065	      0.66878586	     -7.68699931	      5.17427824	     -7.05763393	     -1.78716776	     -5.83501087	     -5.60418094	      0.76235836
      1.24633333	     -0.51142306	      3.01825105	     -0.88109997	      0.19636398	      1.03677050	      0.29803074	     22.90647083	     -4.57413332	     -5.25767432	    -60.37771049	      1.54961182	     -8.73955073	      6.65514862	      4.99417717	      7.19198014	      0.75320690	     -7.37985758	      5.24879666	     -7.08771336	     -1.81264396	     -5.89644259	     -5.40880889	      0.66734114
      1.25050000	     -0.48079246	      2.87051664	     -0.88729079	      0.20136494	      1.03735756	      0.29772117	     23.19155503	     -4.35784377	     -5.23075909	    -59.44341477	      1.69201800	     -8.87696331	      6.53485342	      4.50623576	      7.06008956	      0.84299663	     -7.09387284	      5.31429443	     -7.13681246	     -1.84151170	     -5.96946365	     -5.20705354	      0.58074819
      1.25466667	     -0.47858459	      2.72744005	     -0.87780296	      0.20635999	      1.03785460	      0.29740003	     23.48679251	     -4.15032981	     -5.21716111	    -58.45831092	      1.81040071	     -9.00909655	      6.41132247	      4.06003272	      6.93460581	      0.94910244	     -6.82911017	      5.38206985	     -7.19907867	     -1.87133754	     -6.01231940	     -5.01157815	      0.48481214
      1.25883333	     -0.48053158	      2.59510413	     -0.86163273	      0.21133013	      1.03829077	      0.29708185	     23.77086019	     -3.95251619	     -5.20090202	    -57.42888267	      1.93878397	     -9.16218757	      6.21802789	      3.62273323	      6.82182633	      1.07954853	     -6.56789077	      5.42057375	     -7.31287963	     -1.92092764	     -6.06984338	     -4.83050964	      0.35604853
      1.26300000	     -0.45196915	      2.45933388	     -0.82701796	      0.21631364	      1.03873730	      0.29673044	     23.99248947	     -3.76839740	     -5.22366100	    -56.33669111	      2.01874174	     -9.26064357	      6.07525564	      3.15882679	      6.70582137	      1.20115822	     -6.32072078	      5.50763894	     -7.37170559	     -1.95557521	     -6.13078517	     -4.64164535	      0.26503665
      1.26716667	     -0.45210569	      2.32858704	     -0.78017420	      0.22127568	      1.03909153	      0.29638309	     24.22592934	     -3.58604198	     -5.24519348	    -55.19445543	      2.08013654	     -9.40671118	      5.90173304	      2.73536689	      6.59524196	      1.35255379	     -6.08908885	      5.56997261	     -7.47073686	     -1.99848721	     -6.18190467	     -4.46186364	      0.12977600
      1.27133333	     -0.44868130	      2.19116364	     -0.71524132	      0.22623209	      1.03940942	      0.29600357	     24.42983433	     -3.41006338	     -5.29873551	    -53.99814773	      2.17135476	     -9.48666193	      5.80753050	      2.33016510	      6.47529323	      1.46590777	     -5.90217522	      5.65811232	     -7.51697796	     -2.01985771	     -6.22472777	     -4.26158798	      0.05297315
      1.27550000	     -0.42146466	      2.09445292	     -0.65624672	      0.23119320	      1.03969887	      0.29564981	     24.59679630	     -3.27513681	     -5.34282916	    -52.76157871	      2.14994938	     -9.68434572	      5.63437141	      1.87396428	      6.40218974	      1.64533055	     -5.65837739	      5.72372154	     -7.63795678	     -2.05947862	     -6.30166341	     -4.12925081	     -0.12299308
      1.27966667	     -0.41396122	      1.98296058	     -0.57379331	      0.23615711	      1.03992093	      0.29526362	     24.75602439	     -3.13607592	     -5.42106449	    -51.46752908	      2.14930460	     -9.84293197	      5.46302978	      1.45780823	      6.31109321	      1.81758837	     -5.45463566	      5.79922487	     -7.74328844	     -2.09755064	     -6.35392596	     -3.96639114	     -0.26365592
      1.28383333	     -0.41975248	      1.87336406	     -0.48213104	      0.24110337	      1.04008930	      0.29488516	     24.90624043	     -2.99596379	     -5.50219904	    -50.11562324	      2.11475119	    -10.04560764	      5.25385382	      1.06108491	      6.22046308	      2.01431690	     -5.25721047	      5.85837795	     -7.85568328	     -2.14256651	     -6.41112376	     -3.81136966	     -0.42958501
      1.28800000	     -0.40716172	      1.79340087	     -0.38364999	      0.24606348	      1.04021409	      0.29448644	     25.02203817	     -2.90321395	     -5.61410747	    -48.73259209	      2.06178992	    -10.24045709	      5.03432299	      0.64667382	      6.16149772	      2.19112913	     -5.06474848	      5.93343394	     -7.96472966	     -2.18835276	     -6.46882740	     -3.68917047	     -0.58906778
      1.29216667	     -0.44271303	      1.70031420	     -0.26154892	      0.25102378	      1.04023644	      0.29406176	     25.16355306	     -2.80844204	     -5.76541383	    -47.29937827	      2.04393597	    -10.36078128	      4.92317265	      0.30801893	      6.08459979	      2.34628499	     -4.92267844	      6.03986675	     -7.99945447	     -2.20772451	     -6.48035525	     -3.53766292	     -0.67633682
      1.29633333	     -0.42182767	      1.64636517	     -0.15652202	      0.25599226	      1.04028771	      0.29369342	     25.22499712	     -2.73816880	     -5.88213113	    -45.80708419	      1.86221483	    -10.69112455	      4.68154603	     -0.11786565	      6.05041034	      2.55343580	     -4.72533895	      6.10270267	     -8.12607556	     -2.25316715	     -6.53889594	     -3.45484574	     -0.90969682
      1.30050000	     -0.42814598	      1.58572984	     -0.03261459	      0.26096660	      1.04024708	      0.29329329	     25.29648416	     -2.68116542	     -6.06232797	    -44.28227037	      1.72730554	    -10.93565068	      4.41906886	     -0.50332155	      6.00586163	      2.74406690	     -4.54969677	      6.18625036	     -8.23320834	     -2.30137511	     -6.58581752	     -3.36663943	     -1.09091374
      1.30466667	     -0.44752063	      1.53448881	      0.10287891	      0.26596655	      1.04016101	      0.29287954	     25.35653672	     -2.64229763	     -6.27249056	    -42.70866385	      1.58105835	    -11.15680601	      4.20371804	     -0.86593359	      5.96961201	      2.91710639	     -4.39789025	      6.29559450	     -8.30046349	     -2.33818212	     -6.59420232	     -3.27516822	     -1.23868506
      1.30883333	     -0.45424070	      1.51510794	      0.23144932	      0.27095269	      1.04002413	      0.29250074	     25.39146810	     -2.62987371	     -6.47477124	    -41.10607719	      1.40267670	    -11.41294968	      3.94511163	     -1.24761002	      5.96528930	      3.10564863	     -4.23146560	      6.37892367	     -8.37156231	     -2.38337840	     -6.62509316	     -3.22470543	     -1.42514915
      1.31300000	     -0.51590718	      1.47849910	      0.39013189	      0.27595387	      1.03978615	      0.29209216	     25.45829608	     -2.61831532	     -6.75112492	    -39.45806819	      1.24135668	    -11.59332847	      3.75469756	     -1.54775296	      5.93879104	      3.27904944	     -4.11529759	      6.49779574	     -8.41246925	     -2.41429401	     -6.61700881	     -3.15433310	     -1.55526771
      1.31716667	     -0.50949940	      1.47112156	      0.51961131	      0.28099782	      1.03960389	      0.29173987	     25.43162892	     -2.61810055	     -6.99729218	    -37.76408887	      0.99754410	    -11.87642692	      3.46666123	     -1.95530948	      5.94175745	      3.46391530	     -3.93276193	      6.58640458	     -8.46954492	     -2.46404901	     -6.64192388	     -3.12500751	     -1.77846978
      1.32133333	     -0.59503316	      1.46126244	      0.68134748	      0.28605143	      1.03924331	      0.29135253	     25.48665318	     -2.63613995	     -7.31559076	    -36.05434865	      0.84044327	    -11.98390028	      1.74130906	     -2.26541137	      5.94603788	      3.78579867	     -3.74657876	      6.56649950	     -8.79549606	     -2.80573725	     -6.58037938	     -3.08367557	     -2.14194390
      1.32550000	     -0.60516694	      1.46098385	      0.83337319	      0.29110886	      1.03895394	      0.29101315	     25.44214270	     -2.65977066	     -7.66739199	    -34.30871067	      0.65334071	    -12.13663005	      1.61791610	     -2.61956050	      5.94571845	      3.86948905	     -3.64464814	      6.77967823	     -8.65394841	     -2.82393174	     -6.61857732	     -3.07928519	     -2.11413210
